<svg width="45" height="45" viewBox="0 0 45 45" fill="none" xmlns="http://www.w3.org/2000/svg">
<g id="Bookmark Icon">
<path id="Vector" d="M11.1593 38.2862L22.5 26.9454L33.8407 38.2862C34.1129 38.5583 34.5665 38.6491 34.9294 38.513C35.2923 38.3769 35.5645 37.9686 35.5645 37.6057V7.43939C35.5645 6.89504 35.1109 6.44141 34.5665 6.44141H10.4335C9.88912 6.44141 9.43549 6.89504 9.43549 7.43939V37.5604C9.43549 37.9686 9.6623 38.3315 10.0706 38.4676C10.4335 38.6491 10.8871 38.5583 11.1593 38.2862ZM11.4315 8.43737H33.5686V35.1561L23.2258 24.8134C23.0444 24.6319 22.7722 24.5412 22.5 24.5412C22.2278 24.5412 21.9556 24.6319 21.7742 24.8134L11.4315 35.1561V8.43737Z" fill="white"/>
</g>
</svg>
