<svg width="45" height="45" viewBox="0 0 45 45" fill="none" xmlns="http://www.w3.org/2000/svg">
<g id="Email Icon">
<path id="Vector" fill-rule="evenodd" clip-rule="evenodd" d="M8.93649 11.2051H36.1089C37.4698 11.2051 38.6038 12.3392 38.6038 13.7V31.3462C38.6038 32.7071 37.4698 33.8412 36.1089 33.8412H8.93649C7.5756 33.8412 6.44153 32.7071 6.44153 31.3462V13.6547C6.44153 12.2938 7.53024 11.2051 8.93649 11.2051ZM7.9385 31.1194L17.7823 22.5004L7.9385 13.8815V31.1194ZM18.9163 23.4984L8.89113 32.2988H8.93649H36.1089H36.1542L26.0837 23.4984L24.1331 25.1769C23.1804 25.9934 21.7742 25.9934 20.8669 25.1769C20.8669 25.2222 18.9163 23.4984 18.9163 23.4984ZM27.2177 22.5004L37.0615 31.1194V13.8815L27.2177 22.5004ZM8.89113 12.7021L21.8649 24.0881C22.2278 24.4057 22.7722 24.4057 23.1351 24.0881L36.1089 12.7021H36.0635H8.89113Z" fill="white"/>
</g>
</svg>
