<svg width="45" height="45" viewBox="0 0 45 45" fill="none" xmlns="http://www.w3.org/2000/svg">
<g id="Instagram Icon">
<path id="Vector" fill-rule="evenodd" clip-rule="evenodd" d="M15.6956 6.57715H29.3044C34.4305 6.57715 38.6038 10.7052 38.6038 15.7405V29.304C38.6038 34.3392 34.4305 38.4673 29.3044 38.4673H15.6956C10.5696 38.4673 6.39618 34.3392 6.39618 29.304V15.7405C6.44154 10.7052 10.6149 6.57715 15.6956 6.57715ZM22.4093 13.8806C27.3538 13.8806 31.3911 17.9179 31.3911 22.8624C31.3911 27.807 27.3538 31.8443 22.4093 31.8443C17.4647 31.8443 13.4274 27.807 13.4274 22.8624C13.4274 17.9179 17.4647 13.8806 22.4093 13.8806ZM22.4093 16.9199C25.6754 16.9199 28.3518 19.5963 28.3518 22.8624C28.3518 26.1286 25.6754 28.805 22.4093 28.805C19.1432 28.805 16.4667 26.1286 16.4667 22.8624C16.4667 19.5963 19.1432 16.9199 22.4093 16.9199ZM31.119 12.6558C31.9355 12.6558 32.5706 13.2909 32.5706 14.1074C32.5706 14.9239 31.9355 15.559 31.119 15.559C30.3024 15.559 29.6673 14.9239 29.6673 14.1074C29.6673 13.2909 30.3024 12.6558 31.119 12.6558ZM16.8296 9.16283H28.2157C32.4798 9.16283 35.9728 12.6558 35.9728 16.8745V28.306C35.9728 32.5701 32.4798 36.0177 28.2157 36.0177H16.8296C12.5655 36.0177 9.07259 32.5247 9.07259 28.306V16.8745C9.07259 12.6558 12.5655 9.16283 16.8296 9.16283Z" fill="white"/>
</g>
</svg>
