<svg width="45" height="45" viewBox="0 0 45 45" fill="none" xmlns="http://www.w3.org/2000/svg">
<g id="LinkedIn Icon">
<path id="Vector" fill-rule="evenodd" clip-rule="evenodd" d="M17.9183 16.7839H24.2691V20.05H24.3599C25.2671 18.4623 27.3992 16.7839 30.62 16.7839C37.3337 16.7839 38.5585 20.9573 38.5585 26.3554V37.424H31.9355V27.6256C31.9355 25.2667 31.8901 22.2728 28.4879 22.2728C25.0403 22.2728 24.496 24.8131 24.496 27.4441V37.424H17.9183V16.7839ZM13.3367 11.0228C13.3367 12.928 11.7944 14.4704 9.88911 14.4704C7.98387 14.4704 6.44153 12.928 6.44153 11.0228C6.44153 9.11753 7.98387 7.5752 9.88911 7.5752C11.7944 7.5752 13.3367 9.11753 13.3367 11.0228ZM6.44153 16.7839H13.3367V37.4693H6.44153C6.44153 37.424 6.44153 16.7839 6.44153 16.7839Z" fill="white"/>
</g>
</svg>
