<svg width="45" height="45" viewBox="0 0 45 45" fill="none" xmlns="http://www.w3.org/2000/svg">
<g id="Link Icon">
<path id="Vector" d="M18.871 36.4439C16.0131 39.3018 11.3861 39.3018 8.5736 36.4439C5.71574 33.586 5.71574 28.959 8.5736 26.1465L14.6522 20.0679C17.374 17.3461 21.7288 17.21 24.5867 19.705C25.1311 20.1586 25.1764 20.9752 24.7228 21.5195C24.2692 22.0639 23.4526 22.1092 22.9083 21.6556C21.0484 20.0225 18.2813 20.1133 16.5121 21.8824L10.3881 27.9611C8.52824 29.8209 8.52824 32.7695 10.3881 34.6294C12.248 36.4893 15.1966 36.4893 17.0565 34.6294L23.1351 28.5508C23.6341 28.0518 24.4506 28.0518 24.9496 28.5054C25.4486 29.0044 25.4486 29.8209 24.995 30.3199C24.995 30.3199 24.995 30.3199 24.9496 30.3653L18.871 36.4439ZM30.3932 24.9217C27.6714 27.6435 23.3165 27.7796 20.4587 25.2846C19.9143 24.831 19.869 24.0145 20.3226 23.4701C20.7762 22.9258 21.5928 22.8804 22.1371 23.334C23.997 24.9671 26.7641 24.8764 28.5333 23.1072L34.6119 17.0286C36.4718 15.1687 36.4718 12.2201 34.6119 10.3603C32.752 8.50038 29.8034 8.50038 27.9436 10.3603L21.8649 16.4389C21.3659 16.9379 20.5494 16.9379 20.0504 16.4842C19.5514 15.9853 19.5514 15.1687 20.0051 14.6697C20.0051 14.6697 20.0051 14.6697 20.0504 14.6244L26.129 8.54574C28.9869 5.68788 33.6139 5.68788 36.4264 8.54574C39.2843 11.4036 39.2843 16.0306 36.4264 18.8431L30.3932 24.9217Z" fill="white"/>
</g>
</svg>
