<svg width="45" height="45" viewBox="0 0 45 45" fill="none" xmlns="http://www.w3.org/2000/svg">
<g id="Whatsapp Icon">
<path id="Vector" fill-rule="evenodd" clip-rule="evenodd" d="M33.8407 11.1138C30.8468 8.07447 26.8095 6.44141 22.5453 6.44141C13.7449 6.44141 6.62297 13.6087 6.62297 22.3638C6.62297 25.1763 7.34877 27.8981 8.75502 30.3477L6.48688 38.6037L14.9697 36.3809C17.2832 37.6511 19.9143 38.3315 22.5907 38.3315C31.3911 38.3315 38.5131 31.1642 38.5131 22.4091C38.5131 18.0997 36.8347 14.1077 33.8407 11.1138ZM22.5907 35.6098C20.2318 35.6098 17.873 34.9747 15.8316 33.7499L15.3326 33.4777L10.3427 34.7932L11.7036 29.894L11.3407 29.395C10.0252 27.3083 9.29938 24.8587 9.29938 22.3638C9.29938 15.0604 15.2419 9.11782 22.5453 9.11782C26.0837 9.11782 29.3951 10.4787 31.8901 13.019C34.3851 15.514 35.746 18.8255 35.746 22.4091C35.7913 29.6672 29.8488 35.6098 22.5907 35.6098ZM29.8488 25.6753C29.4405 25.4938 27.4899 24.4958 27.127 24.3598C26.7641 24.2237 26.4919 24.1783 26.2197 24.5412C25.9476 24.9495 25.1764 25.8567 24.9496 26.0835C24.7228 26.3557 24.496 26.4011 24.0877 26.1743C23.6794 25.9928 22.4093 25.5392 20.8669 24.1783C19.6875 23.135 18.8709 21.8194 18.6441 21.4112C18.4173 21.0029 18.5988 20.7761 18.8256 20.5946C19.007 20.4132 19.2339 20.141 19.4153 19.9142C19.5968 19.6874 19.6875 19.5059 19.8236 19.2337C19.9597 18.9616 19.8689 18.7348 19.7782 18.5533C19.6875 18.3719 18.871 16.3759 18.5534 15.6047C18.2359 14.8335 17.9183 14.9243 17.6462 14.9243C17.4193 14.9243 17.1472 14.9243 16.875 14.9243C16.6028 14.9243 16.1945 15.015 15.8316 15.4233C15.4687 15.8315 14.4254 16.7841 14.4254 18.7348C14.4254 20.6854 15.8316 22.5906 16.0585 22.8628C16.2399 23.135 18.871 27.1723 22.8629 28.8507C23.8155 29.2589 24.5413 29.4858 25.131 29.7126C26.0837 30.0301 26.9455 29.9848 27.626 29.8487C28.3972 29.7579 29.9849 28.896 30.3024 27.9434C30.6199 26.9908 30.6199 26.2196 30.5292 26.0382C30.4839 25.9928 30.2117 25.9021 29.8488 25.6753Z" fill="white"/>
</g>
</svg>
