<svg width="24" height="24" viewBox="0 0 24 24" fill="none" xmlns="http://www.w3.org/2000/svg">
<g id="Icon">
<path id="Vector" d="M9.18962 19.4977L8.47995 20.2022L9.18962 19.4977ZM10.355 20.6127L9.68223 21.3525L9.69603 21.3651L9.71028 21.3771L10.355 20.6127ZM11.3553 22.7644L12.1197 23.4091L13.4091 21.8803L12.6447 21.2356L11.3553 22.7644ZM14.8223 19.4977L15.4857 20.2459L15.5083 20.2259L15.5296 20.2046L14.8223 19.4977ZM21 10C21 7.24861 20.0079 4.97884 18.3455 3.39992C16.691 1.82854 14.4351 1 12 1V3C13.9832 3 15.7272 3.67146 16.9682 4.85008C18.2012 6.02116 19 7.75139 19 10H21ZM12 1C9.56544 1 7.31307 1.828 5.66073 3.3706C3.99987 4.92115 3 7.14391 3 9.8125H5C5 7.66859 5.79099 5.9851 7.02556 4.83253C8.26865 3.672 10.0163 3 12 3V1ZM3 9.8125C3 11.9222 3.81507 13.9454 4.87508 15.6958C5.93967 17.4537 7.29522 19.0088 8.47995 20.2022L9.89929 18.7931C8.7791 17.6648 7.53983 16.2351 6.58584 14.6597C5.62727 13.0769 5 11.4183 5 9.8125H3ZM8.47995 20.2022C8.90713 20.6325 9.31473 21.0184 9.68223 21.3525L11.0277 19.8728C10.6824 19.5588 10.2998 19.1965 9.89929 18.7931L8.47995 20.2022ZM12.6447 21.2356L10.9997 19.8482L9.71028 21.3771L11.3553 22.7644L12.6447 21.2356ZM19 10C19 11.5404 18.3797 13.1538 17.4229 14.7097C16.4717 16.2565 15.2351 17.6701 14.115 18.7908L15.5296 20.2046C16.7125 19.021 18.0647 17.4841 19.1266 15.7573C20.1829 14.0396 21 12.0563 21 10H19ZM14.1589 18.7494L13.6454 19.2047L14.9723 20.7012L15.4857 20.2459L14.1589 18.7494Z" fill="#05141F"/>
<path id="Vector_2" d="M12 13C13.6569 13 15 11.6569 15 10C15 8.34315 13.6569 7 12 7C10.3431 7 9 8.34315 9 10C9 11.6569 10.3431 13 12 13Z" stroke="#05141F" stroke-width="2"/>
</g>
</svg>
