<svg width="27" height="49" viewBox="0 0 27 49" fill="none" xmlns="http://www.w3.org/2000/svg">
<g id="Group">
<path id="Vector" d="M13.5 3.46858C8.32357 3.46858 4.13002 7.81356 4.13002 13.1769V26.144C4.13002 31.5073 8.32357 35.8523 13.5 35.8523C18.6764 35.8523 22.8699 31.5073 22.8699 26.144V13.1769C22.8699 7.81356 18.6764 3.46858 13.5 3.46858ZM13.5 0.209839C20.4455 0.209839 26.0151 6.04841 26.0151 13.1769V26.144C26.0151 33.3403 20.38 39.111 13.5 39.111C6.61994 39.111 0.984863 33.2724 0.984863 26.144V13.1769C0.984863 5.98052 6.61994 0.209839 13.5 0.209839Z" fill="white"/>
<path id="Vector_2" d="M11.9274 9.91819C11.9274 9.03561 12.6482 8.28882 13.5 8.28882C14.3518 8.28882 15.0726 9.03561 15.0726 9.91819V18.5403C15.0726 19.4228 14.3518 20.1696 13.5 20.1696C12.6482 20.1696 11.9274 19.4228 11.9274 18.5403V9.91819Z" fill="white"/>
<g id="Group_2">
<path id="Vector_3" d="M14.2862 48.0726C13.5655 48.5478 12.5826 48.2762 12.1239 47.4615C11.6653 46.6469 11.9274 45.6964 12.7137 45.2212L19.9869 40.8762C20.7076 40.4009 21.6905 40.6725 22.1491 41.4872C22.6078 42.234 22.3457 43.2523 21.5594 43.7276L14.2862 48.0726Z" fill="white"/>
<path id="Vector_4" d="M14.2863 45.289C15.007 45.7642 15.2691 46.7147 14.876 47.5294C14.4173 48.2762 13.5 48.5477 12.7137 48.1404L5.44049 43.7954C4.71972 43.3202 4.45762 42.3697 4.85077 41.555C5.24391 40.7404 6.22678 40.5367 7.01307 40.944L14.2863 45.289Z" fill="white"/>
</g>
</g>
</svg>
