<svg width="80" height="80" viewBox="0 0 80 80" fill="none" xmlns="http://www.w3.org/2000/svg">
<g id="Normal / 48 / Line / Vehicle / Airbag">
<circle id="Ellipse 315" cx="62.5" cy="17.5" r="7.5" stroke="#05141F" stroke-width="2"/>
<path id="Vector 264" d="M50.5006 34V33C50.1375 33 49.8028 33.1969 49.6265 33.5144L50.5006 34ZM43.0006 47.5L42.8766 48.4923L43.5468 48.576L43.8748 47.9856L43.0006 47.5ZM31.0006 46L31.1247 45.0077C30.7686 44.9632 30.4159 45.1129 30.2006 45.4L31.0006 46ZM13.0006 70L12.2006 69.4C11.9734 69.703 11.9368 70.1084 12.1062 70.4472C12.2756 70.786 12.6218 71 13.0006 71V70ZM22.0006 70V71C22.2277 71 22.448 70.9227 22.6253 70.7809L22.0006 70ZM37.0006 58L37.1967 57.0194L36.7398 56.928L36.3759 57.2191L37.0006 58ZM52.0006 61L51.8045 61.9806C52.2309 62.0659 52.6636 61.8658 52.8748 61.4856L52.0006 61ZM67.0006 34L67.8748 34.4856C68.0468 34.1759 68.0422 33.7983 67.8625 33.4929C67.6828 33.1875 67.3549 33 67.0006 33V34ZM49.6265 33.5144L42.1265 47.0144L43.8748 47.9856L51.3748 34.4856L49.6265 33.5144ZM43.1247 46.5077L31.1247 45.0077L30.8766 46.9923L42.8766 48.4923L43.1247 46.5077ZM30.2006 45.4L12.2006 69.4L13.8006 70.6L31.8006 46.6L30.2006 45.4ZM13.0006 71H22.0006V69H13.0006V71ZM22.6253 70.7809L37.6253 58.7809L36.3759 57.2191L21.3759 69.2191L22.6253 70.7809ZM36.8045 58.9806L51.8045 61.9806L52.1967 60.0194L37.1967 57.0194L36.8045 58.9806ZM52.8748 61.4856L67.8748 34.4856L66.1265 33.5144L51.1265 60.5144L52.8748 61.4856ZM67.0006 33H50.5006V35H67.0006V33Z" fill="#05141F"/>
<path id="Vector 340" d="M40 43.001L52 70.001" stroke="#05141F" stroke-width="2" stroke-linecap="square" stroke-linejoin="round"/>
<circle id="Ellipse 354" cx="22" cy="22" r="12" stroke="#05141F" stroke-width="2"/>
</g>
</svg>
