<svg width="75" height="75" viewBox="0 0 75 75" fill="none" xmlns="http://www.w3.org/2000/svg">
<g id="Group 815934">
<path id="Vector" d="M42.0682 18.9614C42.0682 18.9614 47.8893 17.7972 52.5462 22.4541C57.2031 27.111 56.0389 32.9322 56.0389 32.9322" stroke="#05141F" stroke-width="2" stroke-linecap="square" stroke-linejoin="round"/>
<path id="Vector_2" d="M39.7397 7.31936C39.7397 7.31936 51.382 4.9909 60.6958 14.3047C70.0096 23.6186 67.6812 35.2608 67.6812 35.2608" stroke="#05141F" stroke-width="2" stroke-linecap="square" stroke-linejoin="round"/>
<path id="Union" fill-rule="evenodd" clip-rule="evenodd" d="M28.2391 23.7099C28.0516 23.5223 27.7972 23.417 27.532 23.417C27.2668 23.417 27.0124 23.5224 26.8249 23.7099L4.02704 46.5083C-1.04967 51.5851 -1.04961 59.8162 4.02716 64.893L10.1071 70.973C15.184 76.0498 23.4153 76.0498 28.492 70.9728L51.2896 48.1746C51.6802 47.7841 51.6802 47.151 51.2896 46.7604L28.2391 23.7099ZM5.44127 47.9225L27.532 25.8312L49.1683 47.4676L27.0778 69.5586C22.7821 73.8545 15.8172 73.8545 11.5214 69.5587L5.44137 63.4788C1.14564 59.183 1.14559 52.2183 5.44127 47.9225ZM34.1187 45.8218C34.1187 48.5497 31.9072 50.7612 29.1793 50.7612C26.4513 50.7612 24.2398 48.5497 24.2398 45.8218C24.2398 43.0938 26.4513 40.8824 29.1793 40.8824C31.9072 40.8824 34.1187 43.0938 34.1187 45.8218Z" fill="#05141F"/>
</g>
</svg>
